<?xml version="1.0" encoding="UTF-8"?>
<svg width="74px" height="73px" viewBox="0 0 74 73" version="1.1" xmlns="http://www.w3.org/2000/svg" xmlns:xlink="http://www.w3.org/1999/xlink">
    <!-- Generator: Sketch 52.2 (67145) - http://www.bohemiancoding.com/sketch -->
    <title>bfriend</title>
    <desc>Created with Sketch.</desc>
    <g id="Page-1" stroke="none" stroke-width="1" fill="none" fill-rule="evenodd">
        <g id="bfriend" fill="#7C7C7C">
            <path d="M29.397,57.038 C21.794,57.038 15.631,50.875 15.631,43.272 C15.631,35.67 21.794,29.507 29.397,29.507 C36.999,29.507 43.162,35.67 43.162,43.272 C43.162,50.875 36.999,57.038 29.397,57.038 M41.671,16.377 C32.218,12.493 22.972,13.384 15.593,17.317 L15.593,7.927 C15.593,3.549 12.044,-1.42108547e-14 7.666,-1.42108547e-14 L2.48689958e-14,-1.42108547e-14 L2.48689958e-14,42.865 L0.011,42.865 C0.009,43.002 2.48689958e-14,43.136 2.48689958e-14,43.272 C2.48689958e-14,59.508 13.162,72.669 29.397,72.669 C49.61,72.669 65.058,52.269 56.276,30.935 C53.564,24.348 48.26,19.084 41.671,16.377" id="Fill-1"></path>
            <path d="M66.0801,72.6691 C61.7191,72.6691 58.1841,69.1341 58.1841,64.7731 C58.1841,60.4111 61.7191,56.8761 66.0801,56.8761 C70.4411,56.8761 73.9761,60.4111 73.9761,64.7731 C73.9761,69.1341 70.4411,72.6691 66.0801,72.6691" id="Fill-4"></path>
        </g>
    </g>
</svg>